<svg width="51" height="31" viewBox="0 0 51 31" fill="none" xmlns="http://www.w3.org/2000/svg">
<path d="M14.3728 11.0761C14.3728 11.7037 14.4407 12.2125 14.5594 12.5857C14.6951 12.9588 14.8647 13.3659 15.1022 13.8069C15.1869 13.9426 15.2209 14.0783 15.2209 14.197C15.2209 14.3667 15.1191 14.5363 14.8986 14.7059L13.83 15.4183C13.6774 15.5201 13.5247 15.571 13.389 15.571C13.2194 15.571 13.0498 15.4862 12.8802 15.3335C12.6427 15.0791 12.4392 14.8077 12.2695 14.5363C12.0999 14.248 11.9303 13.9257 11.7437 13.5355C10.4207 15.0961 8.75844 15.8763 6.75693 15.8763C5.33213 15.8763 4.19568 15.4692 3.36455 14.6551C2.53342 13.8409 2.10938 12.7553 2.10938 11.3984C2.10938 9.95663 2.61823 8.78624 3.6529 7.90425C4.68757 7.02219 6.06149 6.58119 7.80855 6.58119C8.38526 6.58119 8.97893 6.63206 9.60652 6.71691C10.2341 6.80169 10.8786 6.93741 11.5571 7.09008V5.85184C11.5571 4.56273 11.2857 3.66376 10.7599 3.13794C10.2171 2.61213 9.30117 2.35769 7.99514 2.35769C7.40147 2.35769 6.79084 2.42555 6.16326 2.5782C5.53567 2.73086 4.92504 2.91744 4.33138 3.1549C4.05998 3.27363 3.85644 3.34149 3.73771 3.37541C3.61898 3.40933 3.53417 3.42629 3.46632 3.42629C3.22886 3.42629 3.11012 3.25667 3.11012 2.90048V2.06934C3.11012 1.79796 3.14405 1.59441 3.22886 1.47568C3.31367 1.35695 3.46632 1.23821 3.70379 1.11948C4.29745 0.814171 5.00985 0.559741 5.84098 0.356199C6.67208 0.135695 7.55414 0.0339235 8.48701 0.0339235C10.5055 0.0339235 11.9812 0.491894 12.931 1.40783C13.8639 2.32377 14.3389 3.71464 14.3389 5.58044V11.0761H14.3728ZM7.48625 13.6543C8.04601 13.6543 8.62272 13.5525 9.23335 13.349C9.84397 13.1454 10.3868 12.7722 10.8447 12.2634C11.1161 11.9411 11.3196 11.585 11.4214 11.1779C11.5232 10.7708 11.5911 10.2789 11.5911 9.70215V8.98979C11.0991 8.87103 10.5734 8.76929 10.0306 8.7014C9.48776 8.63357 8.96198 8.59966 8.43613 8.59966C7.29973 8.59966 6.46854 8.82016 5.90883 9.27811C5.34909 9.73613 5.07769 10.3807 5.07769 11.2288C5.07769 12.026 5.28124 12.6196 5.70528 13.0267C6.11239 13.4508 6.70606 13.6543 7.48625 13.6543ZM21.1066 15.4862C20.8013 15.4862 20.5978 15.4352 20.4621 15.3166C20.3264 15.2148 20.2077 14.9773 20.1059 14.6551L16.1199 1.54353C16.0181 1.20429 15.9672 0.983787 15.9672 0.865053C15.9672 0.593666 16.1029 0.441008 16.3743 0.441008H18.0365C18.3588 0.441008 18.5793 0.491894 18.698 0.610629C18.8337 0.7124 18.9355 0.949862 19.0373 1.27214L21.8869 12.5009L24.5329 1.27214C24.6177 0.932899 24.7195 0.7124 24.8552 0.610629C24.9909 0.508855 25.2283 0.441008 25.5337 0.441008H26.8906C27.2129 0.441008 27.4334 0.491894 27.5691 0.610629C27.7048 0.7124 27.8235 0.949862 27.8914 1.27214L30.5714 12.6366L33.5057 1.27214C33.6075 0.932899 33.7262 0.7124 33.845 0.610629C33.9807 0.508855 34.2012 0.441008 34.5065 0.441008H36.084C36.3553 0.441008 36.508 0.576703 36.508 0.865053C36.508 0.949862 36.491 1.03467 36.4741 1.13644C36.4571 1.23821 36.4232 1.37391 36.3553 1.56049L32.2675 14.672C32.1657 15.0112 32.047 15.2317 31.9113 15.3335C31.7757 15.4352 31.5552 15.5031 31.2668 15.5031H29.8081C29.4858 15.5031 29.2653 15.4523 29.1296 15.3335C28.9939 15.2147 28.8751 14.9943 28.8073 14.6551L26.1782 3.71464L23.5661 14.6381C23.4813 14.9773 23.3795 15.1978 23.2438 15.3166C23.1081 15.4352 22.8707 15.4862 22.5653 15.4862H21.1066ZM42.9026 15.9441C42.0206 15.9441 41.1386 15.8423 40.2905 15.6388C39.4424 15.4352 38.7809 15.2148 38.3399 14.9603C38.0685 14.8077 37.8819 14.6381 37.814 14.4854C37.7462 14.3328 37.7123 14.1631 37.7123 14.0105V13.1454C37.7123 12.7893 37.848 12.6196 38.1024 12.6196C38.2042 12.6196 38.306 12.6366 38.4077 12.6705C38.5095 12.7044 38.6621 12.7722 38.8318 12.8401C39.4085 13.0945 40.036 13.2981 40.6975 13.4338C41.3761 13.5695 42.0376 13.6373 42.716 13.6373C43.7846 13.6373 44.6158 13.4508 45.1924 13.0776C45.7691 12.7044 46.0745 12.1616 46.0745 11.4662C46.0745 10.9913 45.9218 10.6012 45.6165 10.2789C45.3112 9.95663 44.7345 9.66824 43.9034 9.39687L41.4439 8.63357C40.2057 8.24344 39.2897 7.66673 38.73 6.90349C38.1703 6.15715 37.8819 5.32602 37.8819 4.44401C37.8819 3.73161 38.0345 3.10402 38.3399 2.56124C38.6452 2.01846 39.0523 1.54353 39.5611 1.17037C40.07 0.780245 40.6467 0.491894 41.3251 0.288351C42.0036 0.0848091 42.716 0 43.4624 0C43.8355 0 44.2257 0.0169618 44.5988 0.0678475C44.9889 0.118733 45.3451 0.18658 45.7013 0.254427C46.0406 0.339237 46.3628 0.424046 46.6682 0.525817C46.9734 0.627586 47.2109 0.729357 47.3805 0.831128C47.618 0.966825 47.7876 1.10252 47.8894 1.25518C47.9912 1.39087 48.042 1.57745 48.042 1.81492V2.61213C48.042 2.96832 47.9064 3.1549 47.6519 3.1549C47.5162 3.1549 47.2957 3.08706 47.0074 2.95136C46.0406 2.51035 44.955 2.28985 43.7507 2.28985C42.7839 2.28985 42.0206 2.4425 41.4948 2.76478C40.969 3.08706 40.6975 3.57895 40.6975 4.27438C40.6975 4.74932 40.8672 5.1564 41.2064 5.47867C41.5457 5.80095 42.1733 6.12324 43.0722 6.41156L45.4808 7.17486C46.7021 7.56499 47.5841 8.10779 48.1099 8.8032C48.6357 9.49861 48.8902 10.2958 48.8902 11.1779C48.8902 11.9072 48.7375 12.5687 48.4491 13.1454C48.1438 13.7221 47.7367 14.231 47.2109 14.6381C46.6851 15.0621 46.0575 15.3674 45.3281 15.5879C44.5648 15.8254 43.7676 15.9441 42.9026 15.9441Z" fill="#252F3E"/>
<path fill-rule="evenodd" clip-rule="evenodd" d="M46.1077 24.1877C40.5273 28.3095 32.4195 30.4976 25.4482 30.4976C15.6782 30.4976 6.87499 26.8847 0.225935 20.8802C-0.299882 20.4053 0.175049 19.7607 0.802634 20.1339C7.99445 24.3065 16.8655 26.8338 26.0419 26.8338C32.2329 26.8338 39.0347 25.5447 45.2935 22.8987C46.2265 22.4746 47.0237 23.5093 46.1077 24.1877Z" fill="#FF9900"/>
<path fill-rule="evenodd" clip-rule="evenodd" d="M48.432 21.5413C47.7196 20.6254 43.7165 21.1003 41.9016 21.3208C41.3589 21.3887 41.274 20.9138 41.766 20.5575C44.9548 18.3186 50.196 18.9631 50.8066 19.7095C51.4172 20.4727 50.637 25.7139 47.6517 28.2243C47.1937 28.6144 46.7527 28.4108 46.9563 27.902C47.6348 26.2228 49.1444 22.4403 48.432 21.5413Z" fill="#FF9900"/>
</svg>
