<svg width="51" height="49" viewBox="0 0 51 49" fill="none" xmlns="http://www.w3.org/2000/svg">
<path d="M45.8369 10.7493C45.551 9.83448 44.8649 9.09118 44.0072 8.63376L26.5682 0.285886C26.1107 0.0571772 25.5961 0 25.1387 0C24.6813 0 24.1667 0 23.7093 0.114354L6.27026 8.5194C5.4126 8.91964 4.78365 9.66295 4.55494 10.635L0.266649 29.4463C0.095117 30.4183 0.323826 31.3903 0.895598 32.1908L12.96 47.114C13.6461 47.8001 14.6181 48.2576 15.5901 48.3147H34.8017C35.8309 48.4291 36.8029 47.9717 37.4318 47.114L49.4962 32.1908C50.068 31.3903 50.2967 30.4183 50.1823 29.4463L45.8369 10.7493V10.7493Z" fill="#326DE6"/>
<path d="M43.1503 28.7024C43.0931 28.7024 43.0359 28.7024 43.0359 28.6452C43.0359 28.588 42.9216 28.588 42.8072 28.588C42.5785 28.5309 42.3498 28.5309 42.1211 28.5309C42.0067 28.5309 41.8924 28.5309 41.778 28.4737H41.7208C41.0919 28.4165 40.4058 28.3022 39.7768 28.1306C39.6053 28.0734 39.4338 27.9019 39.3766 27.7304C39.4338 27.7304 39.3766 27.7304 39.3766 27.7304L38.9192 27.616C39.1479 25.9579 39.0335 24.2426 38.6905 22.5844C38.2902 20.9263 37.6041 19.3253 36.6893 17.8959L37.0323 17.5528V17.4957C37.0323 17.3241 37.0895 17.0954 37.2038 16.9811C37.7184 16.5237 38.233 16.1806 38.8048 15.8375C38.9192 15.7803 39.0335 15.7232 39.1479 15.666C39.3766 15.5516 39.5481 15.4373 39.7768 15.3229C39.834 15.2658 39.8912 15.2658 39.9484 15.2086C40.0055 15.1514 39.9484 15.1514 39.9484 15.0942C40.463 14.694 40.5773 14.0079 40.1771 13.4933C40.0055 13.2646 39.6625 13.093 39.3766 13.093C39.0907 13.093 38.8048 13.2074 38.5761 13.3789L38.5189 13.4361C38.4617 13.4933 38.4046 13.5504 38.3474 13.5504C38.1759 13.722 38.0043 13.8935 37.89 14.065C37.8328 14.1794 37.7184 14.2366 37.6613 14.2937C37.261 14.7512 36.7464 15.2086 36.2318 15.5516C36.1175 15.6088 36.0031 15.666 35.8888 15.666C35.8316 15.666 35.7172 15.666 35.6601 15.6088H35.6029L35.1455 15.8947C34.6881 15.4373 34.1735 14.9799 33.716 14.5224C31.6005 12.8643 28.9703 11.8351 26.283 11.5492L26.2258 11.0918V11.149C26.0543 11.0346 25.9971 10.8631 25.9399 10.6916C25.9399 10.0626 25.9399 9.43368 26.0543 8.74755V8.69037C26.0543 8.57602 26.1115 8.46167 26.1115 8.34731C26.1687 8.1186 26.1687 7.88989 26.2258 7.66119V7.31812C26.283 6.74635 25.8256 6.17458 25.2538 6.1174C24.9108 6.06022 24.5677 6.23175 24.2818 6.51764C24.0531 6.74635 23.9387 7.03224 23.9387 7.31812V7.60401C23.9387 7.83272 23.9959 8.06143 24.0531 8.29013C24.1103 8.40449 24.1103 8.51884 24.1103 8.6332V8.69037C24.2246 9.31932 24.2246 9.94827 24.2246 10.6344C24.1674 10.8059 24.1103 10.9775 23.9387 11.0918V11.2062L23.8816 11.6636C23.2526 11.7208 22.6237 11.8351 21.9375 11.9495C19.2502 12.5212 16.7916 13.9507 14.9047 15.9519L14.5617 15.7232H14.5045C14.4473 15.7232 14.3901 15.7803 14.2758 15.7803C14.1614 15.7803 14.0471 15.7232 13.9327 15.666C13.4181 15.2658 12.9035 14.8083 12.5033 14.3509C12.4461 14.2366 12.3318 14.1794 12.2746 14.1222C12.1031 13.9507 11.9887 13.7791 11.8172 13.6076C11.76 13.5504 11.7028 13.5504 11.6456 13.4933C11.5885 13.4361 11.5885 13.4361 11.5885 13.4361C11.3598 13.2646 11.0739 13.1502 10.788 13.1502C10.4449 13.1502 10.159 13.2646 9.9875 13.5504C9.64444 14.065 9.75879 14.7512 10.2162 15.1514C10.2734 15.1514 10.2734 15.2086 10.2734 15.2086C10.2734 15.2086 10.3877 15.3229 10.4449 15.3229C10.6165 15.4373 10.8452 15.5516 11.0739 15.666C11.1882 15.7232 11.3026 15.7803 11.4169 15.8375C11.9887 16.1806 12.5605 16.5237 13.0179 16.9811C13.1322 17.0954 13.2466 17.3241 13.1894 17.4957V17.4385L13.5325 17.7816C13.4753 17.8959 13.4181 17.9531 13.361 18.0674C11.5885 20.8691 10.8452 24.1854 11.3598 27.4445L10.9023 27.5589C10.9023 27.616 10.8452 27.616 10.8452 27.616C10.788 27.7876 10.6165 27.9019 10.4449 28.0163C9.81597 28.1878 9.18702 28.3022 8.50089 28.3593C8.38654 28.3593 8.27219 28.3593 8.15783 28.4165C7.92912 28.4165 7.70041 28.4737 7.47171 28.4737C7.41453 28.4737 7.35735 28.5309 7.243 28.5309C7.18582 28.5309 7.18582 28.5309 7.12864 28.588C6.49969 28.7024 6.09945 29.2742 6.21381 29.9031C6.32816 30.4177 6.84276 30.7608 7.35735 30.7036C7.47171 30.7036 7.52888 30.7036 7.64324 30.6464C7.70041 30.6464 7.70041 30.6464 7.70041 30.5892C7.70041 30.5321 7.87195 30.5892 7.92912 30.5892C8.15783 30.5321 8.38654 30.4177 8.55807 30.3605C8.67243 30.3034 8.78678 30.2462 8.90114 30.2462H8.95831C9.58726 30.0175 10.159 29.8459 10.8452 29.7316H10.9023C11.0739 29.7316 11.2454 29.7888 11.3598 29.9031C11.4169 29.9031 11.4169 29.9603 11.4169 29.9603L11.9315 29.9031C12.7892 32.5333 14.3901 34.8775 16.6201 36.5929C17.1347 36.9931 17.5921 37.3362 18.1638 37.622L17.878 38.0223C17.878 38.0795 17.9351 38.0795 17.9351 38.0795C18.0495 38.251 18.0495 38.4797 17.9923 38.6512C17.7636 39.223 17.4205 39.7948 17.0775 40.3094V40.3665C17.0203 40.4809 16.9631 40.5381 16.8488 40.6524C16.7344 40.7668 16.6201 40.9955 16.4485 41.2242C16.3913 41.2814 16.3913 41.3386 16.3342 41.3957C16.3342 41.3957 16.3342 41.4529 16.277 41.4529C15.9911 42.0247 16.2198 42.7108 16.7344 42.9967C16.8488 43.0539 17.0203 43.1111 17.1347 43.1111C17.5921 43.1111 17.9923 42.8252 18.221 42.4249C18.221 42.4249 18.221 42.3677 18.2782 42.3677C18.2782 42.3106 18.3354 42.2534 18.3926 42.1962C18.4497 41.9675 18.5641 41.796 18.6213 41.5673L18.7356 41.2242C18.9071 40.5953 19.193 40.0235 19.4789 39.4517C19.5933 39.2802 19.7648 39.1658 19.9363 39.1086C19.9935 39.1086 19.9935 39.1086 19.9935 39.0515L20.2222 38.5941C21.8232 39.223 23.4813 39.5089 25.1966 39.5089C26.2258 39.5089 27.255 39.3945 28.2842 39.1086C28.9132 38.9943 29.5421 38.7656 30.1139 38.5941L30.3426 38.9943C30.3998 38.9943 30.3998 38.9943 30.3998 39.0515C30.5713 39.1086 30.7428 39.223 30.8572 39.3945C31.1431 39.9663 31.429 40.5381 31.6005 41.167V41.2242L31.7148 41.5673C31.772 41.796 31.8292 42.0247 31.9435 42.1962C32.0007 42.2534 32.0007 42.3106 32.0579 42.3677C32.0579 42.3677 32.0579 42.4249 32.1151 42.4249C32.3438 42.8252 32.744 43.1111 33.2014 43.1111C33.373 43.1111 33.4873 43.0539 33.6589 42.9967C33.8876 42.8823 34.1163 42.6536 34.1735 42.3677C34.2306 42.0819 34.2306 41.796 34.1163 41.5101C34.1163 41.4529 34.0591 41.4529 34.0591 41.4529C34.0591 41.3957 34.0019 41.3386 33.9448 41.2814C33.8304 41.0527 33.716 40.8811 33.5445 40.7096C33.4873 40.5953 33.4302 40.5381 33.3158 40.4237V40.3094C32.9156 39.7948 32.6297 39.223 32.401 38.6512C32.3438 38.4797 32.3438 38.251 32.4581 38.0795C32.4581 38.0223 32.5153 38.0223 32.5153 38.0223L32.3438 37.5649C35.2598 35.7924 37.4897 33.0479 38.5189 29.7888L38.9763 29.8459C39.0335 29.8459 39.0335 29.7888 39.0335 29.7888C39.1479 29.6744 39.3194 29.6172 39.4909 29.6172H39.5481C40.1771 29.7316 40.806 29.9031 41.3778 30.1318H41.435C41.5493 30.189 41.6637 30.2462 41.778 30.2462C42.0067 30.3605 42.1783 30.4749 42.407 30.5321C42.4642 30.5321 42.5213 30.5892 42.6357 30.5892C42.6929 30.5892 42.6929 30.5892 42.75 30.6464C42.8644 30.7036 42.9216 30.7036 43.0359 30.7036C43.5505 30.7036 44.0079 30.3605 44.1795 29.9031C44.1223 29.2742 43.6649 28.8168 43.1503 28.7024V28.7024ZM26.6261 26.9299L25.0823 27.6732L23.5385 26.9299L23.1383 25.2718L24.2246 23.8995H25.9399L27.0263 25.2718L26.6261 26.9299V26.9299ZM35.946 23.2134C36.2318 24.4141 36.289 25.6148 36.1747 26.8155L30.7428 25.2718C30.2282 25.1574 29.9423 24.6428 30.0567 24.1282C30.1139 23.9567 30.1711 23.8423 30.2854 23.728L34.5737 19.8399C35.2026 20.8691 35.6601 22.0127 35.946 23.2134V23.2134ZM32.8584 17.7244L28.1699 21.0407C27.7696 21.2694 27.1978 21.2122 26.912 20.8119C26.7976 20.6976 26.7404 20.5832 26.7404 20.4117L26.3974 14.6368C28.9132 14.9227 31.1431 16.0091 32.8584 17.7244V17.7244ZM22.5093 14.8083L23.6529 14.5796L23.367 20.2973C23.367 20.8119 22.9096 21.2122 22.395 21.2122C22.2234 21.2122 22.1091 21.155 21.9375 21.0978L17.1918 17.7244C18.6784 16.2949 20.5081 15.2658 22.5093 14.8083ZM15.5337 19.8399L19.7648 23.6136C20.165 23.9567 20.2222 24.5285 19.8792 24.9287C19.7648 25.1002 19.6504 25.1574 19.4217 25.2146L13.8756 26.8155C13.704 24.4141 14.2758 21.9555 15.5337 19.8399V19.8399ZM14.5617 29.5029L20.2222 28.5309C20.6796 28.5309 21.1371 28.8168 21.1942 29.2742C21.2514 29.4457 21.2514 29.6744 21.1371 29.8459L18.9643 35.1062C16.9631 33.7912 15.3622 31.79 14.5617 29.5029V29.5029ZM27.5409 36.5929C26.7404 36.7644 25.9399 36.8787 25.0823 36.8787C23.8816 36.8787 22.6237 36.65 21.4801 36.307L24.2818 31.2182C24.5677 30.8751 25.0251 30.7608 25.4253 30.9895C25.5969 31.1038 25.7112 31.2182 25.8828 31.3897L28.6273 36.3641C28.2842 36.4213 27.9411 36.4785 27.5409 36.5929V36.5929ZM34.5165 31.6184C33.6589 32.9907 32.4581 34.1914 31.0859 35.0491L28.856 29.6744C28.7416 29.217 28.9703 28.7596 29.3706 28.588C29.5421 28.5309 29.7136 28.4737 29.8852 28.4737L35.6029 29.4457C35.317 30.2462 34.9739 30.9895 34.5165 31.6184Z" fill="white"/>
</svg>
